<?xml version="1.0" encoding="UTF-8"?>
<!DOCTYPE svg PUBLIC "-//W3C//DTD SVG 1.1//EN" "http://www.w3.org/Graphics/SVG/1.1/DTD/svg11.dtd">
<!-- Creator: CorelDRAW X8 -->
<svg xmlns="http://www.w3.org/2000/svg" xml:space="preserve" width="8.5in" height="11in" version="1.1" style="shape-rendering:geometricPrecision; text-rendering:geometricPrecision; image-rendering:optimizeQuality; fill-rule:evenodd; clip-rule:evenodd"
viewBox="0 0 8500 11000"
 xmlns:xlink="http://www.w3.org/1999/xlink">
 <defs>
  <style type="text/css">
   <![CDATA[
    .fil0 {fill:#FEFEFE}
   ]]>
  </style>
 </defs>
 <g id="Layer_x0020_1">
  <metadata id="CorelCorpID_0Corel-Layer"/>
  <g id="_983653584">
   <g>
    <g>
     <g>
      <path class="fil0" d="M5808 2283c-179,-79 -388,3 -466,182 -79,180 3,388 183,467 1152,503 1913,1643 1913,2922 0,1760 -1428,3188 -3188,3188 -1760,0 -3188,-1427 -3188,-3188 0,-1279 761,-2419 1913,-2922 179,-79 261,-288 182,-467 -78,-179 -287,-261 -466,-182 -1408,615 -2337,2008 -2337,3571 0,2152 1744,3896 3896,3896 2151,0 3896,-1744 3896,-3896 0,-1563 -930,-2956 -2338,-3571z"/>
      <path class="fil0" d="M4250 5146c195,0 354,-159 354,-354l0 -3188c0,-195 -159,-354 -354,-354 -196,0 -354,159 -354,354l0 3188c0,195 158,354 354,354z"/>
     </g>
    </g>
   </g>
   <g>
   </g>
   <g>
   </g>
   <g>
   </g>
   <g>
   </g>
   <g>
   </g>
   <g>
   </g>
   <g>
   </g>
   <g>
   </g>
   <g>
   </g>
   <g>
   </g>
   <g>
   </g>
   <g>
   </g>
   <g>
   </g>
   <g>
   </g>
   <g>
   </g>
  </g>
 </g>
</svg>
