<?xml version="1.0" encoding="UTF-8"?>
<!DOCTYPE svg PUBLIC "-//W3C//DTD SVG 1.1//EN" "http://www.w3.org/Graphics/SVG/1.1/DTD/svg11.dtd">
<!-- Creator: CorelDRAW X8 -->
<svg xmlns="http://www.w3.org/2000/svg" xml:space="preserve" width="8.5in" height="11in" version="1.1" style="shape-rendering:geometricPrecision; text-rendering:geometricPrecision; image-rendering:optimizeQuality; fill-rule:evenodd; clip-rule:evenodd"
viewBox="0 0 8500 11000"
 xmlns:xlink="http://www.w3.org/1999/xlink">
 <defs>
  <style type="text/css">
   <![CDATA[
    .fil0 {fill:#FEFEFE}
   ]]>
  </style>
 </defs>
 <g id="Layer_x0020_1">
  <metadata id="CorelCorpID_0Corel-Layer"/>
  <g id="_983652912">
   <g>
    <g>
     <path class="fil0" d="M7726 8460l-609 -1014c-280,-468 -429,-1003 -429,-1549l0 -888c0,-1367 -1112,-2479 -2479,-2479 -1366,0 -2479,1112 -2479,2479l0 888c0,546 -148,1081 -429,1549l-608 1014c-33,54 -34,122 -3,178 32,55 91,90 155,90l6729 0c64,0 123,-35 154,-90 31,-56 31,-124 -2,-178zm-6569 -86l448 -746c314,-523 479,-1121 479,-1731l0 -888c0,-1172 953,-2125 2125,-2125 1172,0 2125,953 2125,2125l0 888c0,610 166,1208 480,1731l447 746 -6104 0z"/>
    </g>
   </g>
   <g>
    <g>
     <path class="fil0" d="M4209 1290c-390,0 -708,318 -708,709l0 708c0,98 79,177 177,177 98,0 177,-79 177,-177l0 -708c0,-196 159,-355 354,-355 196,0 354,159 354,355l0 708c0,98 80,177 178,177 97,0 177,-79 177,-177l0 -708c0,-391 -318,-709 -709,-709z"/>
    </g>
   </g>
   <g>
    <g>
     <path class="fil0" d="M4976 8461c-50,-84 -158,-112 -243,-63 -85,49 -113,158 -63,242 46,78 71,172 71,265 0,293 -238,531 -531,531 -293,0 -532,-238 -532,-531 0,-93 26,-187 72,-265 49,-84 21,-193 -64,-242 -85,-49 -193,-21 -242,63 -79,134 -120,287 -120,444 0,488 397,885 885,885 489,0 886,-397 886,-885 0,-157 -41,-310 -119,-444z"/>
    </g>
   </g>
   <g>
   </g>
   <g>
   </g>
   <g>
   </g>
   <g>
   </g>
   <g>
   </g>
   <g>
   </g>
   <g>
   </g>
   <g>
   </g>
   <g>
   </g>
   <g>
   </g>
   <g>
   </g>
   <g>
   </g>
   <g>
   </g>
   <g>
   </g>
   <g>
   </g>
  </g>
 </g>
</svg>
