<?xml version="1.0" encoding="UTF-8"?>
<!DOCTYPE svg PUBLIC "-//W3C//DTD SVG 1.1//EN" "http://www.w3.org/Graphics/SVG/1.1/DTD/svg11.dtd">
<!-- Creator: CorelDRAW X8 -->
<svg xmlns="http://www.w3.org/2000/svg" xml:space="preserve" width="8.5in" height="11in" version="1.1" style="shape-rendering:geometricPrecision; text-rendering:geometricPrecision; image-rendering:optimizeQuality; fill-rule:evenodd; clip-rule:evenodd"
viewBox="0 0 8500 11000"
 xmlns:xlink="http://www.w3.org/1999/xlink">
 <defs>
  <style type="text/css">
   <![CDATA[
    .fil0 {fill:#FEFEFE}
   ]]>
  </style>
 </defs>
 <g id="Layer_x0020_1">
  <metadata id="CorelCorpID_0Corel-Layer"/>
  <g id="_983619536">
   <path class="fil0" d="M4321 1504l2022 1881 2022 1882c82,79 88,207 12,292 -41,44 -97,64 -152,64l0 3 -1023 0 0 3693c0,114 -93,208 -207,208l-1610 0c-114,0 -205,-94 -205,-208l0 -2840 -1998 0 0 2840c0,114 -94,208 -208,208l-1610 0c-113,0 -204,-94 -204,-208l0 -3693 -1026 0c-113,0 -204,-93 -204,-207 0,-64 29,-123 76,-161l2013 -1872 2022 -1885c79,-73 201,-73 280,3l0 0zm1742 2182l-1882 -1753 -1882 1754 -1639 1525 704 0c114,0 208,93 208,207l0 3693 1198 0 0 -2837c0,-114 90,-207 204,-207l2411 0c114,0 207,93 207,207l0 2837 1198 0 0 -3693c0,-114 91,-207 205,-207l707 0 -1639 -1526z"/>
   <g>
   </g>
   <g>
   </g>
   <g>
   </g>
   <g>
   </g>
   <g>
   </g>
   <g>
   </g>
   <g>
   </g>
   <g>
   </g>
   <g>
   </g>
   <g>
   </g>
   <g>
   </g>
   <g>
   </g>
   <g>
   </g>
   <g>
   </g>
   <g>
   </g>
  </g>
 </g>
</svg>
